# xmcd
#
# Track frame offsets:
#	150
#	21530
#	57485
#	80517
#	99622
#	114502
#	131107
#	149947
#	170922
#	190607
#	219282
#	233890
#	247312
#	268435
#	282967
#	310327
#
# Disc length: 4417 seconds
#
# Revision: 2
# Processed by: cddbd v1.5.2PL0 Copyright (c) Steve Scherf et al.
# Submitted via: audiograbber 1.83.01
#
DISCID=09113f10
DTITLE=Various Artist - Real Blues Rock [CD 1)
DYEAR=2008
DGENRE=Bluesrock
TTITLE0=Marc Reece - Bad Dreams
TTITLE1=Popa Chubby - Up From The Skies
TTITLE2=Tinsley Ellis - Get To The Bottom
TTITLE3=Julian Sas - Home Feeling
TTITLE4=David Gogo - Love In The City
TTITLE5=Gary Moore - All Your Love
TTITLE6=Jim Suhler and Monkey Beat - Tijuana Bible
TTITLE7=Omar and The Howlers - Muddy Springs Road
TTITLE8=Ana Popovic - Love Fever
TTITLE9=Johnny Winter - Tribute To Muddy
TTITLE10=Beverly Guitar Watkins - Baghdad Blues
TTITLE11=Bo Ramsey - Hate To See You Go
TTITLE12=Reverend Rusty and The Case - Preacher Man
TTITLE13=Candye Kane - White Trash Girl
TTITLE14=Walter Trout - I'm Tired
TTITLE15=The Stimulators - Sad and Blue
EXTD=
EXTT0=
EXTT1=
EXTT2=
EXTT3=
EXTT4=
EXTT5=
EXTT6=
EXTT7=
EXTT8=
EXTT9=
EXTT10=
EXTT11=
EXTT12=
EXTT13=
EXTT14=
EXTT15=
PLAYORDER=
